<?xml version="1.0" encoding="utf-8"?>
<!-- Generator: Adobe Illustrator 16.0.0, SVG Export Plug-In . SVG Version: 6.00 Build 0)  -->
<!DOCTYPE svg PUBLIC "-//W3C//DTD SVG 1.1//EN" "http://www.w3.org/Graphics/SVG/1.1/DTD/svg11.dtd">
<svg version="1.1" id="Layer_1" focusable="false" xmlns="http://www.w3.org/2000/svg" xmlns:xlink="http://www.w3.org/1999/xlink"
	 x="0px" y="0px" width="500px" height="500px" viewBox="433 134 500 500" enable-background="new 433 134 500 500"
	 xml:space="preserve">
<path fill="#FCFCFC" d="M818.955,365.628c2.563-6.686,3.999-13.998,3.999-21.622c0-33.121-26.871-59.992-59.992-59.992
	c-12.311,0-23.809,3.75-33.308,10.124c-17.31-29.996-49.618-50.118-86.676-50.118c-55.242,0-99.986,44.743-99.986,99.986
	c0,1.687,0.062,3.375,0.125,5.062C508.121,361.378,483,394.749,483,433.994c0,49.68,40.307,89.986,89.987,89.986h229.97
	c44.182,0,79.989-35.807,79.989-79.988C882.946,405.309,855.45,373.001,818.955,365.628z"/>
</svg>
