<?xml version="1.0" encoding="utf-8"?>
<!-- Generator: Adobe Illustrator 16.0.0, SVG Export Plug-In . SVG Version: 6.00 Build 0)  -->
<!DOCTYPE svg PUBLIC "-//W3C//DTD SVG 1.1//EN" "http://www.w3.org/Graphics/SVG/1.1/DTD/svg11.dtd">
<svg version="1.1" id="Layer_1" focusable="false" xmlns="http://www.w3.org/2000/svg" xmlns:xlink="http://www.w3.org/1999/xlink"
	 x="0px" y="0px" width="500px" height="500px" viewBox="433 134 500 500" enable-background="new 433 134 500 500"
	 xml:space="preserve">
<path fill="#FCFCFC" d="M856.781,242.138v35.465c0,31.254-77.839,56.745-173.781,56.745s-173.781-25.491-173.781-56.745v-35.465
	c0-31.254,77.839-56.745,173.781-56.745S856.781,210.884,856.781,242.138z M856.781,321.935v79.797
	c0,31.254-77.839,56.745-173.781,56.745s-173.781-25.491-173.781-56.745v-79.797c37.336,25.712,105.671,37.683,173.781,37.683
	S819.445,347.648,856.781,321.935z M856.781,446.065v79.798c0,31.254-77.839,56.745-173.781,56.745s-173.781-25.491-173.781-56.745
	v-79.798c37.336,25.713,105.671,37.683,173.781,37.683S819.445,471.778,856.781,446.065z"/>
</svg>
