<?xml version="1.0" encoding="utf-8"?>
<!-- Generator: Adobe Illustrator 16.0.0, SVG Export Plug-In . SVG Version: 6.00 Build 0)  -->
<!DOCTYPE svg PUBLIC "-//W3C//DTD SVG 1.1//EN" "http://www.w3.org/Graphics/SVG/1.1/DTD/svg11.dtd">
<svg version="1.1" id="Layer_1" xmlns="http://www.w3.org/2000/svg" xmlns:xlink="http://www.w3.org/1999/xlink" x="0px" y="0px"
	 width="500px" height="500px" viewBox="0 0 500 500" enable-background="new 0 0 500 500" xml:space="preserve">
<g>
	<path fill="#FCFCFC" d="M305.221,333.577c2.345,1.788,4.038,2.802,5.396,4.153c30.585,30.521,61.133,61.083,91.686,91.636
		c0.688,0.687,1.353,1.398,2.063,2.056c3.27,3.024,4.766,6.611,2.895,10.89c-1.775,4.053-5.264,5.35-9.507,5.331
		c-13.271-0.057-26.543-0.021-39.814-0.021c-20.392,0.002-40.78-0.07-61.173,0.059c-4.339,0.024-7.708-1.248-10.803-4.355
		c-33.919-34.051-67.932-68.012-101.904-102.012c-5.769-5.775-5.779-9.976-0.009-15.75c33.97-34.001,67.98-67.962,101.908-102.01
		c2.945-2.954,6.091-4.32,10.301-4.308c33.661,0.108,67.323,0.092,100.983,0.02c4.392-0.009,8.123,0.922,10.014,5.237
		c1.98,4.521,0.057,8.04-3.182,11.273c-31.156,31.096-62.267,62.237-93.415,93.338C309.289,330.483,307.665,331.587,305.221,333.577
		z M376.801,237.025c-0.675-0.066-1.284-0.18-1.896-0.18c-24.754-0.013-49.514-0.084-74.266,0.122
		c-2.053,0.017-4.535,1.467-6.074,2.998c-30.063,29.886-60.021,59.881-89.993,89.864c-1.124,1.124-2.184,2.313-2.684,2.845
		c13.374,13.539,26.51,26.841,39.42,39.911C286.279,327.59,331.425,282.422,376.801,237.025z M376.824,430.098
		c-27.956-27.956-55.591-55.589-82.958-82.964c-12.881,12.885-26.104,26.113-39.596,39.607c9.94,9.924,20.969,19.587,30.325,30.661
		c8.622,10.209,18.215,13.757,31.458,13C336.192,429.247,356.445,430.098,376.824,430.098z"/>
	<path fill="#FCFCFC" d="M399.259,62.348c-0.48,1.01-1.22,2.961-2.306,4.693c-0.755,1.206-1.973,2.127-3.002,3.157
		c-77.028,77.035-154.058,154.067-231.091,231.098c-7.906,7.905-10.937,7.898-18.868-0.031
		c-15.796-15.794-31.594-31.584-47.379-47.391c-6.222-6.227-6.256-10.272-0.114-16.416
		c60.201-60.214,120.423-120.407,180.578-180.665c3.075-3.082,6.377-4.488,10.751-4.473c33.507,0.105,67.013,0.05,100.519,0.064
		C395.209,52.388,399.367,55.836,399.259,62.348z M152.42,284.194c71.675-71.661,143.201-143.175,214.327-214.286
		c-23.518,0-48.101,0.073-72.678-0.079c-3.695-0.021-6.278,1.072-8.885,3.682c-56.015,56.151-112.115,112.215-168.193,168.3
		c-1.212,1.211-2.34,2.506-3.347,3.588C127.168,258.93,140.307,272.075,152.42,284.194z"/>
</g>
</svg>
