<?xml version="1.0" encoding="utf-8"?>
<!-- Generator: Adobe Illustrator 16.0.0, SVG Export Plug-In . SVG Version: 6.00 Build 0)  -->
<!DOCTYPE svg PUBLIC "-//W3C//DTD SVG 1.1//EN" "http://www.w3.org/Graphics/SVG/1.1/DTD/svg11.dtd">
<svg version="1.1" id="Layer_1" focusable="false" xmlns="http://www.w3.org/2000/svg" xmlns:xlink="http://www.w3.org/1999/xlink"
	 x="0px" y="0px" width="500px" height="500px" viewBox="433 134 500 500" enable-background="new 433 134 500 500"
	 xml:space="preserve">
<path fill="#FCFCFC" d="M683.75,288.958c107.527,0,190.211,45.294,190.211,95.043c0,49.748-82.747,95.042-190.211,95.042
	c-107.526,0-190.21-45.295-190.21-95.042C493.539,334.252,576.286,288.958,683.75,288.958 M683.75,278.419
	c-110.852,0-200.75,47.239-200.75,105.582c0,58.343,89.898,105.582,200.75,105.582S884.5,442.344,884.5,384.001
	C884.5,325.658,794.601,278.419,683.75,278.419z M619.886,375.532c-4.956,25.408-22.459,22.771-43.977,22.771l8.595-44.29
	C608.343,354.013,624.529,351.441,619.886,375.532L619.886,375.532z M544.103,443.158h23.023l5.458-28.104
	c25.784,0,41.781,1.881,56.586-11.982c16.374-15.057,20.64-41.844,8.971-55.27c-6.085-7.026-15.872-10.477-29.171-10.477h-44.353
	L544.103,443.158z M660.601,309.158h22.898l-5.458,28.105c19.761,0,38.08-1.443,46.925,6.713c9.284,8.531,4.83,19.447-5.207,70.952
	h-23.212c9.661-49.811,11.48-53.952,7.968-57.715c-3.388-3.639-11.104-2.886-29.736-2.886l-11.794,60.601h-22.898L660.601,309.158
	L660.601,309.158z M799.808,375.532c-5.019,25.783-23.023,22.771-43.977,22.771l8.595-44.29
	C788.39,354.013,804.451,351.441,799.808,375.532L799.808,375.532z M724.025,443.158h23.086l5.459-28.104
	c27.101,0,42.094,1.568,56.586-11.982c16.373-15.057,20.64-41.844,8.971-55.27c-6.085-7.026-15.871-10.477-29.171-10.477h-44.354
	L724.025,443.158z"/>
</svg>
