<?xml version="1.0" encoding="utf-8"?>
<!-- Generator: Adobe Illustrator 16.0.0, SVG Export Plug-In . SVG Version: 6.00 Build 0)  -->
<!DOCTYPE svg PUBLIC "-//W3C//DTD SVG 1.1//EN" "http://www.w3.org/Graphics/SVG/1.1/DTD/svg11.dtd">
<svg version="1.1" id="Layer_1" focusable="false" xmlns="http://www.w3.org/2000/svg" xmlns:xlink="http://www.w3.org/1999/xlink"
	 x="0px" y="0px" width="500px" height="500px" viewBox="433 134 500 500" enable-background="new 433 134 500 500"
	 xml:space="preserve">
<path fill="#FCFCFC" d="M807.677,322.839c-4.192-1.397-8.385-2.717-12.577-3.959c0.699-2.873,1.32-5.745,1.941-8.617
	c9.549-46.272,3.26-83.459-17.935-95.727c-20.419-11.723-53.725,0.466-87.419,29.813c-3.338,2.873-6.6,5.9-9.705,8.928
	c-2.096-2.018-4.27-4.037-6.444-5.978c-35.325-31.365-70.727-44.563-91.922-32.219c-20.34,11.801-26.396,46.815-17.856,90.602
	c0.854,4.348,1.786,8.618,2.873,12.965c-4.968,1.397-9.86,2.95-14.44,4.581C512.735,337.59,483,360.26,483,383.706
	c0,24.222,31.676,48.522,74.764,63.273c3.494,1.165,6.987,2.329,10.559,3.34c-1.165,4.658-2.174,9.237-3.105,13.975
	c-8.152,43.088-1.786,77.248,18.555,88.972c20.962,12.11,56.209-0.312,90.524-30.356c2.717-2.407,5.435-4.892,8.152-7.53
	c3.417,3.337,6.987,6.521,10.559,9.626c33.229,28.571,66.068,40.138,86.332,28.416c20.961-12.112,27.793-48.835,18.943-93.553
	c-0.699-3.417-1.476-6.91-2.33-10.48c2.484-0.7,4.892-1.477,7.299-2.253c44.796-14.827,77.248-38.818,77.248-63.429
	C880.5,360.182,849.911,337.357,807.677,322.839z M702.635,256.926c28.881-25.155,55.82-35.015,68.087-27.949
	c13.12,7.531,18.167,37.964,9.938,77.947c-0.544,2.64-1.087,5.202-1.786,7.764c-17.234-3.882-34.703-6.677-52.249-8.229
	c-10.093-14.44-21.117-28.26-33.073-41.225C696.578,262.361,699.529,259.643,702.635,256.926z M612.809,424
	c3.959,6.755,7.996,13.509,12.266,20.108c-12.111-1.32-24.145-3.261-36.023-5.823c3.416-11.18,7.686-22.748,12.655-34.549
	C605.278,410.569,608.927,417.323,612.809,424L612.809,424z M589.285,330.603c11.179-2.484,23.058-4.503,35.402-6.056
	c-4.114,6.444-8.152,13.043-11.956,19.72c-3.804,6.599-7.531,13.353-11.024,20.186C596.815,352.885,592.7,341.55,589.285,330.603z
	 M610.557,384.094c5.124-10.714,10.714-21.195,16.615-31.52c5.9-10.326,12.266-20.341,18.943-30.201
	c11.646-0.854,23.524-1.32,35.635-1.32s24.067,0.466,35.635,1.32c6.6,9.782,12.889,19.797,18.866,30.045
	c5.978,10.249,11.567,20.729,16.847,31.365c-5.201,10.714-10.791,21.272-16.77,31.676c-5.9,10.325-12.188,20.341-18.787,30.278
	c-11.568,0.854-23.602,1.241-35.791,1.241c-12.189,0-23.99-0.388-35.402-1.086c-6.754-9.859-13.121-19.952-19.099-30.278
	S615.759,394.809,610.557,384.094L610.557,384.094z M750.769,423.844c3.959-6.831,7.686-13.742,11.334-20.729
	c4.969,11.257,9.316,22.67,13.121,34.394c-12.033,2.718-24.223,4.813-36.489,6.211C742.927,437.198,746.886,430.522,750.769,423.844
	L750.769,423.844z M761.949,364.452c-3.649-6.832-7.376-13.664-11.258-20.341c-3.805-6.599-7.764-13.121-11.879-19.564
	c12.5,1.553,24.456,3.649,35.636,6.211C770.877,342.248,766.684,353.428,761.949,364.452z M681.906,277.112
	c8.151,8.85,15.837,18.167,22.98,27.793c-15.372-0.699-30.822-0.699-46.194,0C666.3,294.89,674.142,285.573,681.906,277.112z
	 M591.847,229.52c13.042-7.609,42.001,3.26,72.512,30.278c1.941,1.708,3.882,3.571,5.901,5.435
	c-12.034,12.965-23.136,26.785-33.307,41.225c-17.545,1.553-34.937,4.27-52.172,8.075c-1.009-3.96-1.863-7.997-2.717-12.034
	C574.767,264.922,579.58,236.585,591.847,229.52L591.847,229.52z M572.826,434.17c-3.261-0.931-6.444-1.941-9.627-3.027
	c-16.537-5.201-35.325-13.431-48.911-24.223c-7.841-5.435-13.12-13.819-14.596-23.214c0-14.208,24.533-32.375,59.936-44.718
	c4.425-1.553,8.928-2.951,13.431-4.27c5.279,16.847,11.646,33.384,19.021,49.376C584.627,400.321,578.182,417.09,572.826,434.17z
	 M663.35,510.254c-12.81,11.724-27.638,21.04-43.787,27.406c-8.618,4.115-18.555,4.503-27.406,1.01
	c-12.344-7.144-17.468-34.549-10.481-71.426c0.854-4.349,1.786-8.696,2.873-12.967c17.391,3.727,34.937,6.289,52.716,7.608
	c10.248,14.519,21.505,28.416,33.539,41.459C668.319,505.751,665.834,508.08,663.35,510.254L663.35,510.254z M682.371,491.388
	c-7.919-8.54-15.838-18.012-23.524-28.181c7.453,0.311,15.139,0.465,22.903,0.465c7.996,0,15.838-0.154,23.602-0.543
	C698.209,472.989,690.523,482.383,682.371,491.388z M783.842,514.679c-0.698,9.473-5.356,18.323-12.81,24.301
	c-12.345,7.143-38.663-2.174-67.078-26.551c-3.261-2.796-6.521-5.823-9.86-8.929c11.879-13.12,22.826-27.019,32.764-41.614
	c17.778-1.474,35.479-4.191,52.947-8.151c0.777,3.184,1.476,6.367,2.097,9.473C785.705,479.976,786.326,497.444,783.842,514.679
	L783.842,514.679z M797.972,431.22c-2.174,0.699-4.348,1.397-6.6,2.02c-5.435-16.926-12.111-33.463-19.797-49.533
	c7.453-15.838,13.741-32.142,19.021-48.833c4.037,1.165,7.919,2.407,11.646,3.649c36.179,12.422,61.566,30.899,61.566,45.029
	C863.808,398.768,836.713,418.409,797.972,431.22z M681.75,419.574c19.643,0,35.558-15.916,35.558-35.557
	c0-19.643-15.915-35.558-35.558-35.558c-19.642,0-35.557,15.916-35.557,35.558C646.193,403.658,662.108,419.574,681.75,419.574z"/>
</svg>
