<?xml version="1.0" encoding="utf-8"?>
<!-- Generator: Adobe Illustrator 16.0.0, SVG Export Plug-In . SVG Version: 6.00 Build 0)  -->
<!DOCTYPE svg PUBLIC "-//W3C//DTD SVG 1.1//EN" "http://www.w3.org/Graphics/SVG/1.1/DTD/svg11.dtd">
<svg version="1.1" id="Layer_1" focusable="false" xmlns="http://www.w3.org/2000/svg" xmlns:xlink="http://www.w3.org/1999/xlink"
	 x="0px" y="0px" width="500px" height="500px" viewBox="433 134 500 500" enable-background="new 433 134 500 500"
	 xml:space="preserve">
<path fill="#FCFCFC" d="M848.303,248.695l-150.775-62.823c-9.276-3.848-19.701-3.848-28.977,0l-150.775,62.823
	c-14.057,5.812-23.245,19.554-23.245,34.789c0,155.88,89.916,263.622,173.941,298.645c9.267,3.849,19.711,3.849,28.979,0
	c67.299-28.034,174.018-124.86,174.018-298.645C871.469,268.249,862.281,254.506,848.303,248.695z M683.079,533.441L683,234.245
	l138.134,57.562C818.541,410.701,756.661,496.847,683.079,533.441L683.079,533.441z"/>
</svg>
